<svg xmlns="http://www.w3.org/2000/svg" viewBox="0 0 109.19 32.05"><defs><style>.cls-1{fill:#fff;}.cls-2{fill:#ea0029;}</style></defs><g id="Original"><path class="cls-1" d="M8.2,24.46a8.2,8.2,0,1,1,8.2-8.2A8.21,8.21,0,0,1,8.2,24.46Zm0-12.88a4.68,4.68,0,1,0,4.68,4.68A4.69,4.69,0,0,0,8.2,11.58Z"></path><path class="cls-1" d="M8.06,32.05a8.25,8.25,0,0,1-6.58-3,1.76,1.76,0,1,1,2.79-2.14,5.27,5.27,0,0,0,5.34,1.42,4.11,4.11,0,0,0,3.25-3.26c.05-5.37,0-15.16,0-15.26A1.77,1.77,0,0,1,14.61,8h0a1.75,1.75,0,0,1,1.76,1.75c0,.1.05,10.09,0,15.45a2.11,2.11,0,0,1,0,.25,7.58,7.58,0,0,1-5.87,6.25A9.7,9.7,0,0,1,8.06,32.05Z"></path><path class="cls-1" d="M102.34,8.52a1.75,1.75,0,0,0-2.49.09l-3.07,3.3,2.38,2.61L102.43,11A1.75,1.75,0,0,0,102.34,8.52Z"></path><path class="cls-1" d="M93.51,15.64a1.77,1.77,0,0,0,0,1.18l.55-.58Z"></path><circle class="cls-2" cx="107.03" cy="16.2" r="2.16"></circle><path class="cls-1" d="M27.32,24.43a8.21,8.21,0,1,1,8.21-8.21A8.21,8.21,0,0,1,27.32,24.43Zm0-12.89A4.69,4.69,0,1,0,32,16.22,4.69,4.69,0,0,0,27.32,11.54Z"></path><path class="cls-1" d="M57.94,24.15a1.79,1.79,0,0,1-1.79-1.79V1.8a1.8,1.8,0,1,1,3.59,0V22.36A1.79,1.79,0,0,1,57.94,24.15Z"></path><path class="cls-1" d="M69.79,24.47h-.45c-4-.17-7.06-2.83-7.31-6.48a.66.66,0,0,1,0-.14c0-2.79,0-8,0-8a1.76,1.76,0,0,1,1.76-1.76h0a1.76,1.76,0,0,1,1.76,1.76s0,5.17,0,8c.19,2.2,2.24,3.07,3.95,3.14,2.05.09,4.27-.87,4.69-3.21,0-5,0-7.83,0-7.86a1.76,1.76,0,0,1,3.52-.06s0,3,0,8.1a2.29,2.29,0,0,1,0,.25A7.6,7.6,0,0,1,69.79,24.47Z"></path><path class="cls-1" d="M39.7,24.23a1.76,1.76,0,0,1-1.76-1.76V8.54c0-.08.1-8.25,8.8-8.25H52a1.76,1.76,0,0,1,0,3.52H46.74c-5.13,0-5.28,4.25-5.28,4.73V22.47A1.75,1.75,0,0,1,39.7,24.23Z"></path><path class="cls-1" d="M52,13.87H40a1.76,1.76,0,1,1,0-3.52H52a1.76,1.76,0,0,1,0,3.52Z"></path><path class="cls-2" d="M81.78,24.36a1.74,1.74,0,0,1-1.2-.47,1.77,1.77,0,0,1-.09-2.49l4.8-5.16L80.48,11a1.76,1.76,0,1,1,2.6-2.38l7,7.68-7,7.53A1.74,1.74,0,0,1,81.78,24.36Z"></path><path class="cls-1" d="M89.49,24.36a1.74,1.74,0,0,1-1.2-.47,1.77,1.77,0,0,1-.09-2.49L93,16.24,88.19,11a1.76,1.76,0,0,1,2.6-2.38l7,7.68-7,7.53A1.74,1.74,0,0,1,89.49,24.36Z"></path><path class="cls-1" d="M93.67,15.81a1.7,1.7,0,0,0-.07.92l.46-.49Z"></path><path class="cls-1" d="M102.37,21.21l-3.15-3.29h0L96.82,20.5l3,3.15a1.77,1.77,0,0,0,1.27.54,1.74,1.74,0,0,0,1.22-.49A1.77,1.77,0,0,0,102.37,21.21Z"></path></g></svg>